<svg xmlns="http://www.w3.org/2000/svg" width="1721.53" height="403.123" xmlns:v="https://vecta.io/nano"><path fill="#fbc400" d="M128.178 54.038l11.093 15.649c1.17 2.213 1.702 4.644 2.294 7.038 1.812 7.334.322 10.803-6.478 14.173-2.512 1.245-4.283 3.009-5.853 5.192-8.965 12.464-21.859 17.204-36.496 18.442-1.98.168-4.257-.491-5.91.438-5.244 2.948-9.088 1.252-12.453-2.998l-1.977-1.257c-6.875-7.839-7.744-17.246-7.065-27.057.17-.262.184-.531.04-.809.67-4.443.365-9.097 2.854-13.145l1.062-3.239c.877-1.142.864-2.797 2.135-3.713l-.027.042c.695-1.554 2.039-2.651 2.891-4.095l3.997-3.942c3.03-2.019 5.587-4.751 9.111-6.023l3.877-1.95c9.942-2.671 19.715-2.102 29.343 1.489 1.441.537 2.408 1.708 3.648 2.506l-.039-.031c1.464.921 2.885 1.893 3.953 3.29z"/><path fill="#fe656d" d="M98.496 276.749c14.458-.522 26.528 4.31 35.49 15.961 1.195 1.553 2.02 3.39 3.016 5.095.628 4.134-.529 7.607-3.009 11.064-3.281 4.572-4.819 10.161-7.762 14.989-6.389 10.483-16.125 15.284-27.929 16.615-1.313.148-2.652.045-3.975.133-4.433.296-8.69.834-10.06 6.188-.244.954-1.083 1.65-2.089 1.991-7.634-4.677-12.537-11.491-15.535-19.807-.33-.915-.772-1.79-1.163-2.683-2.42-1.283-2.692-3.69-2.917-5.979-.955-9.728.969-18.866 6.082-27.23 1.543-2.524 3.168-5.183 6.692-5.327 6.631-5.961 14.496-9.325 23.159-11.01z"/><path fill="#fe2e33" d="M345.549 44.804c14.942-.402 27.295 4.818 36.527 16.818 2.259 4.971.478 9.023-2.126 13.464-3.691 6.296-6.375 13.14-11.553 18.562-6.649 6.964-14.957 11.069-23.809 14.165-5.477 1.916-11.39 2.757-15.15 7.919-.486.667-1.417.828-2.291.748l-3.879-2.853c-3.582-6.13-8.793-11.855-10.44-18.467-4.829-19.392 1.621-42.792 27.438-49.518 1.645-1.011 3.624.085 5.283-.838z"/><path fill="#022835" d="M359.233 208.92c-7.108-7.515-6.12-13.645 3.017-18.568 1.299-.7 2.663-1.278 3.997-1.913l4.983-.93c5.007-2.488 9.272.733 12.79 2.902 5.736 3.536 10.909 4.59 17.189 2.057 3.386-1.365 7.239-1.018 10.752.167 5.046 1.702 9.738 1.227 14.289-1.471 1.576-.934 3.267-1.637 5.19-1.214l6.34-2.349c5.171-1.855 9.441-.498 13.253 3.373 3.738 3.798 3.991 7.992 2.182 12.643-.653 1.991-.768 4.324-3.266 5.146-8.359-1.116-15.85 1.723-23.364 4.867-5.034 2.106-10.304 2.393-15.489.077-3.388-1.513-6.76-1.138-10.163.107-6.3 2.304-12.558 2.135-18.019-1.912-6.291-4.662-12.62-6.054-19.693-2.139-1.384-.028-2.644-.629-3.988-.843z"/><path fill="#de1e22" d="M327.146 116.479c2.999-5.805 8.21-8.144 14.237-9.703 10.141-2.624 19.516-7.038 26.354-15.231 3.57-4.278 6.147-9.392 9.099-14.174 1.293-2.095 2.776-4.187 3.499-6.492.934-2.975 1.193-6.161 1.741-9.257l4.998 8.405 3.077 17.438c-1.325 2.217.819 5.053-1.272 7.133-6.816 25.543-34.143 38.222-56.309 26.057-1.976-1.085-3.624-2.77-5.424-4.176z"/><path fill="#f14145" d="M82.179 348.785c2.588-9.094 3.85-10.027 13.251-10.138 13.97-.164 24.55-6.1 30.959-18.695 3.712-7.294 7.087-14.759 10.614-22.148 8.189 14.982 7.386 29.478-2.824 43.153-2.422 3.244-5.951 5.661-8.971 8.459-14.466 8.145-28.815 8.336-43.029-.631z"/><use href="#B" fill="#e38c02"/><path fill="#022233" d="M411.402 143.616c-2.313 6.842-6.699 11.165-14.181 11.888-6.472.625-10.808-4.811-12.62-10.231-1.585-4.741 1.698-12.082 6.066-14.393 8.7-4.604 18.502-.565 20.781 7.874.424 1.625.486 3.246-.046 4.862z"/><path fill="#011f2e" d="M216.26 14.292l-.13-2.814C215.126 5.54 218.053.783 223.053.229c9.256-1.026 13.228 1.342 13.909 8.293l.894 1.997c1.204 2.483 1.145 5.036.418 7.625-.112.113-.237.335-.338.325-7.161-.713-14.541-.06-21.28-3.427l-.396-.75z"/><path fill="#012b42" d="M291.217 290.577c-19.144 13.263-40.191 21.483-63.625 21.061-37.537-.674-67.055-16.887-89.333-47.283-26.402-36.023-26.121-87.935-2.354-123.766 19.612-29.567 47.726-44.56 81.959-49.708 2.452-.369 4.973-.273 7.463-.394 1.971-.465 3.944-.434 5.918-.021 29.467 1.862 54.831 13.296 75.218 34.405 16.677 17.268 26.431 38.166 29.047 62.462 1.697 15.759.062 30.981-3.49 46.199-.357 6.133-2.774 11.672-5.767 16.794-7.889 13.502-15.824 27.043-28.538 36.837-1.968 1.516-3.816 3.258-6.498 3.414z"/><path fill="#14b36c" d="M214.257 400.584c-12.43-4.77-18.404-14.742-19.627-27.111-1.932-19.537 7.146-36.479 30.2-39.465 13.533-1.753 29.912 9.494 32.521 22.505.51 2.604-1.475 3.689-3.214 4.319-3.584 1.299-5.5 3.976-7.302 7.059-3.903 6.68-8.6 12.656-15.861 16.042-3.194 1.489-6.559 2.43-10.086 2.528-3.334.092-4.665 1.737-4.804 4.984-.133 3.108.097 6.36-1.827 9.139z"/><path fill="#0b8663" d="M214.257 400.584c.119-4.376.003-8.78.528-13.106.127-1.051 2.376-2.651 3.631-2.635 12.909.168 20.613-7.348 26.754-17.463 2.112-3.479 3.243-8.003 8.698-8.227 1.195-.049 2.324-1.717 3.484-2.639 5.688 10.204 3.917 20.04-1.535 29.648-8.399 14.796-25.834 20.823-41.56 14.422z"/><path fill="#011f2e" d="M216.262 59.688l.248-45.13 21.79 3.618.87 38.844c-5.069-2.61-1.059-6.107-1.284-8.029.132 2.411-2.667 3.268-5.42 4.172l-3.295 1.044c-4.982 1.125-9.582 2.857-12.495 7.442l-.414-1.961z"/><path fill="#022536" d="M289.16 28.673c8.828-.168 13.734 5.502 13.88 12.679.165 8.116-6.447 14.403-14.403 14.386-6.653-.014-13.068-6.763-13.326-13.78-.244-6.636 6.578-14.262 13.849-13.285z"/><path fill="#022236" d="M52.342 269.84c-4.823-1.842-8.508-4.714-9.264-10.236-.412-1.966-.417-3.931.003-5.897 2.321-6.673 8.927-10.855 15.575-9.861 6.55.98 11.19 5.692 11.517 11.695.357 6.563-4.287 12.156-11.895 14.326-1.98.438-3.959.479-5.936-.027z"/><path fill="#01263b" d="M58.275 130.448c6.372 1.94 10.635 6.937 10.786 12.643.163 6.137-2.898 10.72-8.459 12.668-6.245 2.186-12.377.498-16.364-4.791-4.14-5.492-2.8-17.975 9.09-20.475 1.646-.484 3.295-.424 4.947-.045z"/><path fill="#011f2e" d="M163.168 29.747c7.969-.022 13.775 5.775 14.16 13.488.382 7.647-6.732 13.167-13.55 13.319-6.736.15-12.335-6.269-12.526-13.703-.151-5.894 6.333-14.31 11.916-13.104z"/><path fill="#022034" d="M394.276 269.877c-6.392-1.882-11.194-8.996-9.892-15.019 1.435-6.636 6.299-11.083 12.922-10.979 7.083.112 13.811 6.242 13.564 12.5-.268 6.779-4.38 11.115-10.642 13.46-1.981.513-3.965.456-5.952.038z"/><path fill="#01243a" d="M291.308 371.563c-7.388.061-13.564-5.804-13.729-13.037-.133-5.829 6.847-12.695 13.039-12.826 6.549-.139 13.297 5.83 13.24 11.713-.072 7.608-5.825 14.094-12.55 14.15z"/><path fill="#02243b" d="M163.41 370.735c-7.35-.075-13.319-6.117-13.123-13.285.162-5.934 6.78-11.714 13.298-11.612 6.433.1 13.633 6.253 13.353 11.762-.334 6.594-6.875 14.165-13.528 13.135z"/><path fill="#011f2e" d="M216.676 61.647c-.022-5.637 3.553-7.355 8.401-8.184 3.229-.552 6.45-1.585 9.436-2.931 1.486-.669 2.436-2.527 3.341-3.531l1.314 10.013-1.247 5.529c-.677.706-1.406 1.37-2.025 2.125-7.527 9.193-15.274 5.966-19.22-3.021z"/><path fill="#fecb00" d="M318.175 180.683c.231.293.27.609.115.949.185.325.258.848.079.884-7.047 1.42-6.406 7.504-6.939 12.333-.451 4.092-1.273 7.786-3.467 11.246-1.242 1.959-2.483 4.042-2.7 6.385-1.093 11.825-8.03 20.597-14.321 30.075-6.761 10.185-15.56 17.358-25.379 24.083-11.784 8.072-24.673 12.875-38.494 15.673-7.954 1.61-15.874 3.498-24.098 2.597-.993-.109-2.018-.121-2.941-.497-2.551-1.039-4.742-1.568-5.699 2.079-.351 1.336-1.569 2.169-3.142 1.204-19.455-7.363-34.077-20.624-44.369-38.303-17.351-29.806-17.592-60.852-3.416-91.756 10.835-23.62 30.289-37.688 54.374-46.832 46.857-17.788 106.986 12.683 119.126 62.373.195.798.231 1.635.342 2.453 1.191 1.524-.118 3.505.929 5.054z"/><path fill="#ee8e03" d="M191.19 287.695c.708-1.476 1.201-3.122 2.19-4.376.8-1.014 2.554-2.449 3.276-2.162 4.989 1.98 9.57 2.998 15.198 1.234 6.415-2.01 13.429-2.038 20.132-3.213 13.868-2.43 25.373-9.78 37.165-17.041 10.677-6.574 16.542-16.741 24.033-25.886 6.382-7.791 7.492-17.234 11.062-25.886 3.252-7.881 5.367-15.758 6.774-23.886.75-4.331 1.453-6.323 6.007-4.234.271.124.835-.393 1.263-.612 3.533 16.903 2.405 33.386-2.304 50.111-11.116 39.477-55.984 68.969-97.184 63.596-9.377-1.224-18.417-5.029-27.612-7.645z"/><path fill="#fafaf9" d="M190.66 133.278c2.254 1.559 5.545 2.641 6.534 4.784 1.731 3.752 3.383 8.295-.077 12.193-4.916 5.538-10.742 9.912-17.949 12.004-5.184 1.505-9.501-1.373-9.599-6.863-.062-3.51.35-7.813 2.323-10.416 4.389-5.79 9.878-10.76 18.768-11.702z"/><path fill="#022c54" d="M189.327 204.533c-.068 6.964-6.111 12.954-13.073 12.957-6.522.003-12.748-6.235-12.792-12.817-.043-6.558 5.868-13.555 11.46-13.563 7.836-.012 14.477 6.176 14.405 13.423z"/><path fill="#032b55" d="M290.601 205.036c.103 6.671-5.728 12.245-12.958 12.388-6.381.126-13.169-6.568-13.249-13.067-.086-6.942 5.308-12.822 11.784-12.846 7.73-.027 14.309 6.142 14.423 13.525z"/><path fill="#faf5e9" d="M205.372 132.047c.04-4.398 4.361-8.069 9.501-8.071 4.577-.001 8.439 3.352 8.418 7.308-.031 5.866-4.986 11.863-9.861 11.934-4.772.07-8.118-4.569-8.058-11.171z"/><path fill="#fdd986" d="M155.289 168.777c.647-.511 2.011-2.516 3.454-2.575 7.204-.294 10.277 2.007 10.247 6.944-.025 4.122-4.093 8.571-7.713 8.437-3.519-.13-6.126-5.025-5.988-12.806z"/><path fill="#022835" d="M4.676 208.92c-7.108-7.515-6.12-13.645 3.017-18.568 1.299-.7 2.663-1.278 3.997-1.913l4.983-.93c5.007-2.488 9.272.733 12.79 2.902 5.736 3.536 10.909 4.59 17.189 2.057 3.386-1.365 7.239-1.018 10.752.167 5.046 1.702 9.738 1.227 14.289-1.471 1.576-.934 3.267-1.637 5.19-1.214l6.34-2.349c5.171-1.855 9.441-.498 13.253 3.373 3.738 3.798 3.991 7.992 2.182 12.643-.653 1.991-.768 4.324-3.266 5.146-8.359-1.116-15.85 1.723-23.364 4.867-5.034 2.106-10.304 2.393-15.489.077-3.388-1.513-6.76-1.138-10.163.107-6.3 2.304-12.558 2.135-18.019-1.912-6.291-4.662-12.62-6.054-19.693-2.139-1.384-.028-2.645-.629-3.988-.843z"/><path fill="#0ca3e3" d="M378.287 285.632l11.093 15.649c1.17 2.213 1.702 4.644 2.294 7.038 1.812 7.334.322 10.803-6.478 14.173-2.512 1.245-4.283 3.009-5.853 5.192-8.965 12.464-21.859 17.204-36.496 18.442-1.98.168-4.257-.491-5.91.438-5.244 2.948-9.088 1.252-12.453-2.998l-1.977-1.257c-6.875-7.839-7.744-17.246-7.065-27.057.17-.262.184-.531.04-.809.67-4.443.365-9.097 2.854-13.145l1.062-3.239c.877-1.142.864-2.797 2.135-3.713l-.027.042c.695-1.554 2.039-2.651 2.891-4.095l3.997-3.942c3.03-2.019 5.587-4.751 9.111-6.023l3.877-1.95c9.942-2.671 19.715-2.102 29.344 1.489 1.441.537 2.408 1.708 3.648 2.506l-.039-.031c1.463.921 2.884 1.893 3.952 3.29z"/><use href="#B" x="250.109" y="231.593" fill="#0298d0"/><g fill="#002f46"><path d="M500.673 274.319c-.729-12.064-1.04-20.281-1.04-24.649v-3.224c0-3.848.937-6.656 2.912-8.424l58.347-74.363v-.416l-4.889-.624-58.762.416c-.416 0-.937-.312-1.561-.936s-.936-1.248-1.04-1.768c0-.104-.104-.728-.208-1.768s-.208-1.664-.208-1.976l-3.849-21.113c0-1.768 1.873-2.808 5.617-3.224h.416c6.76-.728 20.176-.832 40.249-.312s36.298 1.456 48.778 2.808c1.56 0 2.287 1.04 2.184 3.224l-.416 35.777c0 1.56-.312 2.496-1.04 2.808l-51.378 71.451 50.338-.728c.936.104 1.456 1.04 1.456 2.808v.416c0 .104 0 .416-.104.936s-.104.832-.104 1.04c-.52 10.92-1.04 17.889-1.456 20.801-.416 1.56-1.56 2.392-3.433 2.392-7.384 0-18.616.208-33.697.52l-33.697.52h-6.031l-5.721-.624c-.832-.104-1.456-.832-1.872-2.184l.209.416zm106.084-3.848c-4.264-.832-6.448-2.08-6.553-3.848v-13.001l5.617-81.435c0-.104.207-1.456.52-4.056l.624-4.992c.312-3.536 1.56-5.408 3.744-5.72.521-.104.937-.312 1.144-.52s.416-.312.521-.312h4.056 4.057l9.672.208c1.561.104 2.705.312 3.433.52s1.56.624 2.392 1.352 1.248 1.664 1.248 2.808v2.08l-.623 9.152-1.145 16.953-1.664 29.329-2.496 43.37c-.104 3.848-.832 6.136-2.08 6.968s-4.057 1.248-8.32 1.248h-1.04c-2.288-.104-6.656-.208-13.208-.208l.101.104zm-.728-138.326c-.104-1.248-.207-2.184-.207-2.704s0-1.456.104-2.704.312-2.184.729-2.808l1.56-2.288c.624-.936 1.664-1.664 3.017-2.08s2.912-.832 4.68-1.144 3.952-.416 6.553-.312a111.96 111.96 0 0 1 9.048.728c3.849.936 7.072 2.704 9.776 5.304s4.057 5.824 4.057 9.568c0 8.528-4.681 12.792-13.938 12.792-3.119 0-6.344-.416-9.775-1.144s-6.761-2.184-10.089-4.264-5.097-4.784-5.408-8.008l-.107-.936zm46.283 28.393l.416-.208c.104 0 .312-.104.623-.208l.416-.208c3.017-.416 6.137-.624 9.465-.624h15.912.416c3.953 0 5.929.936 6.033 2.704 0 1.768-.209 4.264-.625 7.592l-.623 7.28v.312c6.24-7.592 15.6-11.336 28.185-11.336 16.329 0 28.081 3.952 35.153 11.752 2.809 3.224 5.408 9.152 7.801 17.785 1.871 6.24 2.808 13.729 2.808 22.361v3.64l-.208 2.704-4.057 50.546-30.889 2.08c-.416.104-1.04-.208-1.872-1.04v-1.976c0-3.848.312-12.168 1.04-24.961l1.04-24.649c0-10.088-1.56-17.265-4.784-21.529s-8.112-6.448-14.664-6.448c-3.849 0-7.177 1.04-10.089 3.224s-5.097 5.304-6.656 9.36-2.808 8.32-3.744 12.792-1.456 9.672-1.664 15.601-.312 11.024-.312 15.393l.207 14.457.209 10.92c-1.145-.104-3.953-.208-8.425-.208s-7.28.104-8.528.208c-3.12 0-6.344.312-9.776.832h-4.056c-1.145-.52-1.769-.832-1.873-.936v-3.848l3.121-113.364zm131.772 37.65c-.416 0-2.808-.104-7.28-.208l-7.28-.312c-2.601-.312-3.952-1.248-4.056-2.912l-1.248-15.913-.209-1.976c0-1.248.209-2.184.729-2.912.52-1.144 2.288-1.976 5.305-2.496h.416c.52-.104 3.016-.312 7.384-.624l7.384-.52c.416-.312.625-.936.625-1.872l3.224-34.737c.312 0 1.56-.104 3.744-.208l3.744-.208h9.984 9.984c1.56 0 2.601.728 3.017 2.288l.104 2.288.104 2.288c0 .416 0 1.04-.104 1.872s-.104 1.56-.104 2.288v.832c-.521 8.84-1.145 15.497-1.873 20.073v1.248h13.521c1.871 0 2.808 1.456 2.703 4.472 0 9.256.104 15.913.416 19.969v1.04c0 1.56-2.703 2.6-8.111 3.12s-8.736.624-10.089.312c-.832 5.512-1.248 10.92-1.248 16.225v7.072c0 .416.208 3.016.521 7.904l.52 7.8c.416 3.952 1.664 6.656 3.744 8.112s5.2 2.184 9.465 2.184c2.808 0 8.632-1.664 17.473-4.888h1.248c.936 0 1.664.52 2.184 1.664l8.32 18.305v1.04c0 2.808-4.68 6.136-13.937 9.88l-.416.208c-8.528 2.704-15.809 4.056-21.944 4.056-3.849 0-7.385-.52-10.609-1.456s-6.031-2.08-8.424-3.536-4.473-3.432-6.344-5.824-3.433-4.784-4.681-7.072-2.288-5.2-3.224-8.736-1.664-6.656-2.185-9.36-.937-6.136-1.248-10.192-.521-7.488-.624-10.296l-.312-10.504-.312-9.672v-.106zm77.068 28.393v-9.568c.52-12.376 1.144-21.841 1.871-28.393.104-1.144.416-3.328.937-6.552l1.248-7.176c.311-1.56.832-3.536 1.56-5.928s1.561-4.576 2.496-6.448c.104-.52.625-.832 1.561-.832l20.593-2.08h7.904c.937 0 1.456.936 1.456 2.912v1.56l-3.536 39.105v22.153c0 .104.312 2.496.832 7.072.728 4.264 2.601 6.448 5.616 6.552 2.809 0 5.928-1.872 9.36-5.616l.416-.416c4.576-4.992 7.177-12.064 7.696-21.113 0-.728 0-2.704.104-6.032l.104-5.616V195.9v-5.096l-.208-2.392c0-1.768-.312-4.992-.936-9.568s-.937-8.008-.937-10.192c0-1.248.521-2.288 1.56-3.224 9.881-.936 19.553-1.664 29.018-2.184h3.848 4.057c1.145.416 1.768 1.144 1.872 2.184l5.513 36.609c.416 22.569 2.184 42.85 5.304 60.738v1.664c0 1.872-.521 2.912-1.456 3.016l-22.568 3.432-.729.208h-1.04c-2.392 0-3.64-.832-3.744-2.6-.521-4.992-1.144-8.944-1.872-11.96-.52-2.288-.832-3.744-.936-4.472 0-1.248-.416-1.872-1.145-1.872h-.208c-5.408 6.656-10.816 11.856-16.329 15.601s-11.855 5.616-19.137 5.616c-11.648 0-20.904-3.016-27.873-9.048s-10.816-14.769-11.648-26.105l-.624-9.674zm128.964 43.89c-4.265-.832-6.448-2.08-6.552-3.848v-13.001l5.615-81.435c0-.104.209-1.456.521-4.056l.624-4.992c.312-3.536 1.561-5.408 3.744-5.72.52-.104.936-.312 1.145-.52s.416-.312.52-.312h4.057 4.056l9.673.208c1.56.104 2.703.312 3.432.52s1.561.624 2.393 1.352 1.248 1.664 1.248 2.808v2.08l-.625 9.152-1.144 16.953-1.664 29.329-2.496 43.37c-.104 3.848-.832 6.136-2.08 6.968s-4.056 1.248-8.32 1.248h-1.04c-2.288-.104-6.656-.208-13.209-.208l.102.104zm-.728-138.326c-.104-1.248-.209-2.184-.209-2.704s0-1.456.104-2.704.312-2.184.728-2.808l1.561-2.288c.624-.936 1.664-1.664 3.016-2.08s2.912-.832 4.681-1.144 3.952-.416 6.552-.312a111.91 111.91 0 0 1 9.049.728c3.848.936 7.072 2.704 9.776 5.304s4.056 5.824 4.056 9.568c0 8.528-4.68 12.792-13.936 12.792-3.121 0-6.345-.416-9.777-1.144s-6.76-2.184-10.088-4.264-5.096-4.784-5.408-8.008l-.105-.936zm59.386 172.023c-1.353 0-2.08-.416-2.08-1.248v-3.224l4.056-22.777c.312-1.248 1.041-1.872 2.289-1.872h.416c10.191 2.288 16.744 3.432 19.656 3.328 7.696 0 13.937-3.016 18.617-8.944s7.384-12.896 8.111-20.905h-.416c-7.8 8.944-18.2 13.417-31.201 13.417-11.96 0-21.633-3.64-29.121-10.816s-11.232-16.849-11.232-28.913c0-9.048 1.561-16.953 4.681-23.713 4.992-10.504 12.169-19.241 21.425-26.209s19.449-10.4 30.577-10.4c5.097 0 8.841.416 11.128 1.248.416 0 2.08.624 5.097 1.976h.208.208l1.04-8.32 25.377 1.456c1.248 0 1.872.832 1.872 2.392l-.208 21.841v24.025c.104 8.216-.104 16.329-.729 24.441s-1.352 15.913-2.287 23.505-2.601 14.561-4.992 20.905-5.305 11.752-8.736 16.329-7.904 8.112-13.417 10.504-11.856 3.328-19.032 2.808h-10.193c-9.672 0-16.744-.312-21.112-1.04v.206zm9.88-91.524c0 6.136 2.393 10.504 7.072 13.208s10.297 4.056 16.85 4.056c2.287 0 4.367-.104 6.344-.416 6.137-.936 9.152-1.56 9.152-1.872l-.832-37.753c0-.52-1.664-1.04-4.992-1.56s-5.616-.832-6.76-.832c-6.969 0-13.209 2.496-18.721 7.488s-8.217 10.92-8.217 17.889l.104-.208zm84.763 31.618c0-3.432.937-5.2 2.705-5.304.936 0 1.56.208 1.871.52 1.561 1.248 4.785 2.808 9.568 4.68a119.6 119.6 0 0 0 15.602 4.888c5.615 1.352 10.607 1.144 14.977-.624s6.552-5.408 6.552-10.816c0-1.976-2.392-4.472-7.28-7.384s-9.049-5.096-12.48-6.448c-7.592-2.6-13.625-5.512-18.201-8.84s-7.488-6.552-8.736-9.776-2.08-6.552-2.496-9.984-.312-6.552.416-9.36c1.248-11.128 6.553-19.657 15.809-25.585s20.178-8.632 32.762-8.112 24.441 4.056 35.465 10.608c.104.104.416.312.832.624s.729.624.832.936.209.624.209 1.04c0 2.392-.521 5.096-1.664 8.112s-2.809 6.656-4.992 10.92l-3.744 7.488c-2.393-1.768-5.824-3.536-10.4-5.408s-9.465-3.432-14.77-4.784-9.984-1.248-13.936.312-6.033 4.784-6.137 9.776c-.104 3.848 1.04 6.864 3.432 9.048s5.408 3.64 9.049 4.472 8.32 2.496 14.041 4.992 10.92 5.616 15.6 9.464c4.369 3.536 7.177 9.256 8.425 17.265.728 4.992.208 10.4-1.456 16.225-2.393 7.8-6.76 13.729-13 17.785s-13.312 6.24-21.217 6.552-15.809-.416-23.817-2.08-15.497-4.264-22.465-7.696c-1.456-.728-2.288-1.352-2.601-1.872l1.245-21.634zm101.3-89.236c0-1.872 2.08-3.12 6.24-3.64l18.513-1.768h1.872c2.704 0 4.056.624 4.056 1.976v11.024c4.576-1.56 10.297-2.288 17.266-2.184 8.84 0 16.225 1.144 22.152 3.432 3.641 1.56 7.176 3.848 10.504 6.864 8.529 8.112 12.793 17.785 12.689 29.017a60.35 60.35 0 0 1-5.617 25.585c-3.744 8.112-9.152 14.249-16.225 18.409-7.384 4.056-16.952 6.136-28.809 6.136-1.145 0-2.809 0-5.096-.104s-3.953-.104-4.889-.104l.624 40.874c0 1.352-1.769 2.392-5.408 3.12s-11.128 1.664-22.569 2.808h-.52c-1.352 0-2.08-.416-2.08-1.248l-2.703-140.197zm29.226 63.963l5.304.624 7.488.832c13.417 0 20.073-5.824 19.969-17.473v-4.056c-.832-3.432-2.704-6.032-5.513-7.904s-6.031-2.808-9.672-2.808h-3.225-6.656c-4.056 0-6.24.104-6.656.208-.832 0-1.248.624-1.248 1.976v28.081l.209.52zm69.786 6.76c0-11.752 2.912-23.297 8.736-34.529s13.937-20.385 24.337-27.561 21.529-10.816 33.489-10.816c26.417 0 39.626 15.393 39.626 46.178v7.28c-.104 3.224-1.977 5.096-5.513 5.512l-42.642 4.472-19.553.416c-1.248 8.424-.312 14.977 2.912 19.657s7.592 7.384 13.209 8.112 11.544.624 17.889-.416 12.064-2.704 17.16-4.992 8.633-4.472 10.608-6.656h.624c.832 0 1.561.52 2.184 1.56s1.145 2.392 1.457 4.16l.52 2.808 1.248 5.2 1.145 4.576c.207.832.416 2.08.52 3.848s.208 3.64.208 5.72v1.144c-.104.832-.208 1.352-.208 1.456-.52.728-1.248 1.456-2.184 2.184s-1.769 1.248-2.601 1.664-1.769.936-2.912 1.56-2.08 1.04-2.704 1.352c-.52 0-1.248.208-2.08.728-10.713 3.432-21.113 5.096-31.305 5.096-8.529 0-18.098-1.456-28.81-4.264-11.337-3.224-19.969-8.736-25.897-16.537s-8.943-17.473-8.943-29.121l-.52.209zm65.835-44.826c-4.889 0-9.465 1.352-13.833 3.952s-7.384 6.032-9.152 10.296h1.248l26.001-4.472c1.561 0 2.393-.416 2.393-1.144 0-.936-.416-2.6-1.353-4.888s-1.976-3.536-3.12-3.64h-1.04l-1.144-.208v.104z"/><use href="#C"/><path d="M1514.503 261.526c0-4.576 1.352-8.736 4.16-12.584s6.344-5.824 10.608-5.824c4.681 0 8.841 1.352 12.376 4.056s5.305 6.24 5.305 10.712c0 4.992-1.664 9.36-4.889 13.208s-7.176 5.72-11.855 5.72c-4.576 0-8.32-1.456-11.232-4.264s-4.369-6.552-4.369-11.128l-.104.104zm48.362-100.988l.416-.208c.104 0 .312-.104.625-.208l.416-.208c3.016-.416 6.136-.624 9.464-.624h15.913.416c3.951 0 5.928.936 6.031 2.704 0 1.768-.207 4.264-.623 7.592l-.625 7.28v.312c6.24-7.592 15.602-11.336 28.186-11.336 16.328 0 28.081 3.952 35.153 11.752 2.808 3.224 5.408 9.152 7.8 17.785 1.873 6.24 2.809 13.729 2.809 22.361v3.64l-.208 2.704-4.056 50.546-30.89 2.08c-.416.104-1.04-.208-1.872-1.04v-1.976c0-3.848.312-12.168 1.04-24.961l1.04-24.649c0-10.088-1.561-17.265-4.784-21.529s-8.112-6.448-14.665-6.448c-3.848 0-7.176 1.04-10.088 3.224s-5.096 5.304-6.656 9.36-2.809 8.32-3.744 12.792-1.456 9.672-1.664 15.601-.312 11.024-.312 15.393l.209 14.457.207 10.92c-1.144-.104-3.951-.208-8.424-.208s-7.28.104-8.528.208c-3.12 0-6.345.312-9.776.832h-4.057c-1.144-.52-1.768-.832-1.871-.936v-3.848l3.118-113.364z"/><use href="#C" x="216.328"/></g><defs ><path id="B" d="M74.375 111.973c4.952 4.943 10.376 1.271 15.504.626 6.33-.796 12.636-2.058 18.828-3.616 8.996-2.264 15.315-8.227 20.358-15.773.873-1.307 2.105-2.682 3.494-3.287 8.571-3.735 9.897-6.253 7.689-15.374-.389-1.605-.653-3.24-.975-4.861 7.757 13.275 4.555 25.97-2.815 37.903-10.996 17.806-31.282 23.398-50.38 14.551-1.196-.554-2.429-1.026-3.645-1.537-2.559-1.348-4.279-3.596-6.122-5.711l-1.936-2.921z"/><path id="C" d="M1464.685 132.977c.312-1.352.936-2.08 1.872-2.184l32.345-.832c.729 0 1.457.312 2.08.832s.937 1.144.937 1.768l-5.824 133.957c0 2.184-.937 3.536-2.704 4.056-3.536.728-11.232 1.04-22.984 1.04-2.705 0-4.16-1.04-4.265-3.016l-1.457-135.621z"/></defs></svg>